<svg width="46" height="47" viewBox="0 0 46 47" fill="none" xmlns="http://www.w3.org/2000/svg">
<rect y="0.5" width="46" height="46" rx="23" fill="white" fill-opacity="0.22"/>
<path d="M29.2377 17.6611C28.0902 17.1245 26.8602 16.7278 25.574 16.5023C25.5626 16.5 25.5507 16.5015 25.5401 16.5065C25.5295 16.5115 25.5206 16.5198 25.5148 16.5303C25.3573 16.8173 25.1818 17.1914 25.0588 17.4869C23.6947 17.2755 22.3078 17.2755 20.9437 17.4869C20.8067 17.1594 20.6522 16.84 20.4809 16.5303C20.4751 16.5197 20.4663 16.5112 20.4557 16.5059C20.4452 16.5006 20.4333 16.4988 20.4217 16.5007C19.1362 16.7263 17.9062 17.1229 16.758 17.6603C16.7482 17.6646 16.7398 17.672 16.734 17.6813C14.4001 21.2394 13.7604 24.7096 14.0746 28.1363C14.0755 28.1447 14.078 28.1528 14.082 28.1602C14.086 28.1675 14.0914 28.174 14.0979 28.1791C15.4601 29.2076 16.9795 29.991 18.5925 30.4967C18.6037 30.5003 18.6157 30.5003 18.627 30.4967C18.6382 30.4931 18.6482 30.486 18.6555 30.4765C19.002 29.9943 19.311 29.4849 19.5749 28.9498C19.5907 28.9187 19.5757 28.8814 19.5442 28.8689C19.0597 28.6797 18.5903 28.4514 18.1402 28.1861C18.1322 28.1813 18.1253 28.1745 18.1204 28.1663C18.1155 28.1581 18.1126 28.1488 18.112 28.1392C18.1114 28.1295 18.1131 28.1199 18.117 28.1111C18.1209 28.1023 18.1268 28.0947 18.1342 28.0889C18.2287 28.0165 18.3232 27.9411 18.4132 27.8657C18.4213 27.8589 18.4311 27.8546 18.4414 27.8532C18.4517 27.8518 18.4622 27.8534 18.4717 27.8579C21.4169 29.2298 24.6066 29.2298 27.5172 27.8579C27.5267 27.8532 27.5373 27.8513 27.5478 27.8526C27.5583 27.8538 27.5682 27.8581 27.5765 27.8649C27.6665 27.9411 27.7602 28.0165 27.8555 28.0889C27.863 28.0946 27.869 28.1021 27.873 28.1108C27.877 28.1195 27.8789 28.1291 27.8784 28.1387C27.878 28.1484 27.8752 28.1577 27.8704 28.166C27.8656 28.1743 27.859 28.1812 27.851 28.1861C27.4025 28.4536 26.936 28.6799 26.4462 28.8681C26.4387 28.871 26.4319 28.8754 26.4262 28.8812C26.4204 28.887 26.416 28.894 26.413 28.9018C26.4101 28.9095 26.4089 28.9178 26.4093 28.9261C26.4097 28.9343 26.4118 28.9424 26.4155 28.9498C26.6855 29.4841 26.9945 29.9927 27.3342 30.4757C27.3413 30.4856 27.3511 30.493 27.3624 30.4969C27.3737 30.5008 27.3858 30.501 27.3972 30.4975C29.0129 29.9932 30.5348 29.2094 31.8986 28.1791C31.9052 28.1743 31.9108 28.168 31.915 28.1608C31.9191 28.1535 31.9217 28.1455 31.9226 28.1371C32.2976 24.1753 31.2941 20.7331 29.2609 17.6829C29.2559 17.673 29.2477 17.6652 29.2377 17.6611ZM20.0152 26.0497C19.1287 26.0497 18.3975 25.2183 18.3975 24.1987C18.3975 23.1783 19.1145 22.3477 20.0152 22.3477C20.9227 22.3477 21.6471 23.1853 21.6329 24.1987C21.6329 25.2191 20.9159 26.0497 20.0152 26.0497ZM25.9963 26.0497C25.109 26.0497 24.3786 25.2183 24.3786 24.1987C24.3786 23.1783 25.0948 22.3477 25.9963 22.3477C26.9037 22.3477 27.6282 23.1853 27.614 24.1987C27.614 25.2191 26.9045 26.0497 25.9963 26.0497Z" fill="white" fill-opacity="0.86"/>
</svg>
