<svg width="46" height="47" viewBox="0 0 46 47" fill="none" xmlns="http://www.w3.org/2000/svg">
<rect y="0.5" width="46" height="46" rx="23" fill="white" fill-opacity="0.22"/>
<path d="M23.4972 20.4985C21.5692 20.4985 19.9958 22.0719 19.9958 24C19.9958 25.9281 21.5692 27.5015 23.4972 27.5015C25.4252 27.5015 26.9986 25.9281 26.9986 24C26.9986 22.0719 25.4252 20.4985 23.4972 20.4985ZM33.9988 24C33.9988 22.55 34.012 21.1132 33.9305 19.6658C33.8491 17.9847 33.4656 16.4927 32.2363 15.2633C31.0044 14.0314 29.515 13.6505 27.8339 13.5691C26.3839 13.4876 24.9471 13.5008 23.4998 13.5008C22.0499 13.5008 20.613 13.4876 19.1657 13.5691C17.4846 13.6505 15.9926 14.034 14.7633 15.2633C13.5314 16.4953 13.1505 17.9847 13.0691 19.6658C12.9876 21.1158 13.0008 22.5526 13.0008 24C13.0008 25.4474 12.9876 26.8868 13.0691 28.3342C13.1505 30.0153 13.534 31.5073 14.7633 32.7367C15.9952 33.9686 17.4846 34.3495 19.1657 34.4309C20.6157 34.5124 22.0525 34.4992 23.4998 34.4992C24.9498 34.4992 26.3866 34.5124 27.8339 34.4309C29.515 34.3495 31.007 33.966 32.2363 32.7367C33.4682 31.5047 33.8491 30.0153 33.9305 28.3342C34.0146 26.8868 33.9988 25.45 33.9988 24ZM23.4972 29.3875C20.5158 29.3875 18.1098 26.9814 18.1098 24C18.1098 21.0186 20.5158 18.6125 23.4972 18.6125C26.4785 18.6125 28.8846 21.0186 28.8846 24C28.8846 26.9814 26.4785 29.3875 23.4972 29.3875ZM29.1052 19.6501C28.4092 19.6501 27.847 19.0879 27.847 18.3918C27.847 17.6957 28.4092 17.1336 29.1052 17.1336C29.8013 17.1336 30.3634 17.6957 30.3634 18.3918C30.3636 18.5571 30.3312 18.7208 30.2681 18.8736C30.2049 19.0263 30.1123 19.1651 29.9954 19.282C29.8785 19.3989 29.7397 19.4915 29.587 19.5547C29.4342 19.6179 29.2705 19.6503 29.1052 19.6501Z" fill="white" fill-opacity="0.86"/>
</svg>
