<svg width="46" height="47" viewBox="0 0 46 47" fill="none" xmlns="http://www.w3.org/2000/svg">
<rect y="0.5" width="46" height="46" rx="23" fill="white" fill-opacity="0.22"/>
<path d="M34 17.5165C33.2277 17.8573 32.3981 18.0875 31.526 18.1916C32.4259 17.6554 33.0991 16.8115 33.4201 15.8173C32.5746 16.3174 31.6493 16.6694 30.6844 16.858C30.0355 16.1681 29.176 15.7108 28.2393 15.5571C27.3027 15.4034 26.3413 15.562 25.5044 16.0082C24.6675 16.4544 24.002 17.1632 23.6111 18.0246C23.2203 18.8861 23.1259 19.8519 23.3428 20.7722C21.6296 20.6865 19.9537 20.2431 18.4238 19.4708C16.8939 18.6984 15.5442 17.6143 14.4622 16.2888C14.0923 16.9243 13.8795 17.6611 13.8795 18.4458C13.8791 19.1522 14.0538 19.8477 14.3881 20.4708C14.7224 21.0938 15.206 21.6251 15.7959 22.0174C15.1117 21.9957 14.4427 21.8116 13.8444 21.4804V21.5357C13.8443 22.5264 14.1885 23.4867 14.8185 24.2535C15.4484 25.0203 16.3254 25.5465 17.3006 25.7427C16.666 25.9138 16.0006 25.939 15.3547 25.8164C15.6299 26.6689 16.1658 27.4143 16.8876 27.9484C17.6093 28.4825 18.4807 28.7785 19.3797 28.7949C17.8535 29.9879 15.9687 30.6351 14.0285 30.6322C13.6848 30.6323 13.3413 30.6123 13 30.5724C14.9695 31.8334 17.2621 32.5026 19.6035 32.5C27.5296 32.5 31.8626 25.9629 31.8626 20.2933C31.8626 20.1091 31.858 19.923 31.8497 19.7388C32.6925 19.1319 33.42 18.3803 33.9982 17.5193L34 17.5165Z" fill="white" fill-opacity="0.86"/>
</svg>
